<svg xmlns="http://www.w3.org/2000/svg" width="167" height="60" viewBox="0 0 167 60" version="1.1"><path d="M 55.020 16.250 C 49.431 19.106, 46.915 22.574, 46.268 28.317 C 44.914 40.325, 57.610 49.780, 68.453 44.839 C 71.546 43.430, 71.579 43.006, 68.868 39.560 C 67.271 37.530, 66.156 36.995, 64.425 37.429 C 61.154 38.250, 57.335 36.223, 55.977 32.944 C 53.764 27.603, 56.995 23, 62.956 23 C 65.906 23, 67.136 22.442, 68.385 20.535 C 70.724 16.965, 70.432 16.214, 66.250 15.053 C 61.007 13.596, 60.004 13.703, 55.020 16.250 M 81.383 15.536 C 75.979 18.284, 74.238 25.731, 78.043 29.816 C 79.167 31.022, 81.642 32.659, 83.543 33.454 C 85.490 34.267, 87 35.613, 87 36.535 C 87 37.837, 86.170 38.103, 82.945 37.836 C 79.424 37.544, 78.671 37.860, 77.225 40.230 C 75.039 43.815, 76.367 45.137, 82.776 45.752 C 91.028 46.545, 96 42.799, 96 35.788 C 96 31.192, 93.813 28.476, 88.468 26.435 C 83.226 24.433, 83.106 22.632, 88.186 22.198 C 90.737 21.980, 92.084 21.211, 93.039 19.428 C 94.692 16.339, 93.707 15.276, 88.500 14.526 C 85.830 14.142, 83.464 14.477, 81.383 15.536 M 14.224 30.250 L 14.500 45.500 19 45.500 L 23.500 45.500 23.783 34.250 L 24.066 23 26.976 23 C 31.699 23, 33 25.976, 33 36.780 L 33 46.115 37.250 45.807 L 41.500 45.500 41.785 35.225 C 42.264 17.999, 39.555 15, 23.524 15 L 13.948 15 14.224 30.250" stroke="none" fill="#142455" fill-rule="evenodd"/><path d="M 141.653 15.490 C 140.834 16.309, 137.183 21.255, 133.539 26.481 L 126.914 35.982 128.119 40.003 C 130.405 47.633, 131.025 47.255, 142.013 31.530 C 148.118 22.793, 151.970 16.364, 151.630 15.478 C 150.874 13.509, 143.626 13.517, 141.653 15.490 M 110.654 29.033 C 104.964 37.194, 101.065 43.726, 101.385 44.560 C 101.752 45.516, 103.440 46, 106.407 46 L 110.877 46 118.515 34.979 L 126.152 23.957 124.743 19.729 C 123.968 17.403, 122.691 15.375, 121.905 15.222 C 121.044 15.055, 116.572 20.544, 110.654 29.033" stroke="none" fill="#04ace4" fill-rule="evenodd"/></svg>