<svg xmlns="http://www.w3.org/2000/svg" width="3030" height="1090" viewBox="0 0 3030 1090" version="1.1"><path d="M 1539.500 271.099 C 1507.448 274.985, 1475.560 287.593, 1451.500 305.891 C 1441.605 313.417, 1427.224 327.895, 1419.595 338.013 C 1397.510 367.301, 1386.022 400.822, 1386.006 436.026 C 1385.976 500.370, 1416.605 549.640, 1474.839 578.919 C 1484.522 583.787, 1494.385 587.791, 1510 593.191 C 1548.648 606.557, 1575.034 620.578, 1585.256 633.181 C 1598.508 649.520, 1597.520 670.117, 1582.775 684.877 C 1576.039 691.620, 1562.441 698.438, 1551.585 700.515 C 1542.457 702.262, 1521.495 702.465, 1510.322 700.915 C 1497.164 699.090, 1480.281 694.252, 1463.541 687.511 C 1454.764 683.976, 1447.496 681.178, 1447.389 681.292 C 1444.171 684.755, 1378.029 780.634, 1378.325 781.406 C 1378.949 783.031, 1398.817 794.072, 1410.500 799.286 C 1451.759 817.699, 1491.615 826.242, 1536.500 826.292 C 1579.131 826.340, 1613.248 818.953, 1646.500 802.475 C 1698.454 776.729, 1728.289 734.911, 1735.590 677.600 C 1737.770 660.486, 1737.077 635.956, 1734.004 621.500 C 1723.195 570.651, 1690.937 530.270, 1641.500 505.701 C 1627.715 498.851, 1618.076 495.279, 1585.740 485.037 C 1557.667 476.146, 1549.033 472.864, 1539.050 467.293 C 1530.452 462.495, 1521.648 453.622, 1518.216 446.296 C 1515.802 441.144, 1515.500 439.333, 1515.500 430 C 1515.500 419.961, 1515.649 419.226, 1518.890 413.248 C 1524.975 402.029, 1536.018 394.467, 1553.170 389.777 C 1560.477 387.780, 1563.833 387.500, 1580.500 387.500 C 1602.130 387.500, 1608.975 388.603, 1628 395.157 C 1634.325 397.336, 1640.458 399.359, 1641.628 399.653 C 1643.482 400.118, 1647.975 394.163, 1676.513 353.412 L 1709.271 306.637 1706.885 304.663 C 1702.226 300.806, 1677.768 289.804, 1663.244 285.030 C 1632.390 274.890, 1608.232 271.021, 1572.500 270.496 C 1558.750 270.295, 1543.900 270.566, 1539.500 271.099 M 1095 271.588 C 1093.075 271.810, 1087.225 272.481, 1082 273.080 C 1041.280 277.746, 1000.775 292.686, 965.802 315.940 C 922.400 344.797, 887.500 387.258, 867.385 435.679 C 846.367 486.273, 839.872 545.029, 849.110 601 C 868.225 716.812, 954.180 802.582, 1070.500 821.914 C 1091.287 825.369, 1106.438 826.294, 1132.780 825.719 C 1172.164 824.858, 1201.413 819.346, 1232.866 806.856 C 1247.343 801.107, 1268.284 789.471, 1278.348 781.585 C 1280.083 780.225, 1278.081 777.115, 1245.469 730.520 C 1226.369 703.231, 1209.991 679.975, 1209.071 678.840 C 1207.401 676.777, 1207.398 676.778, 1199.450 680.769 C 1181.592 689.739, 1163.770 693.181, 1134.500 693.316 C 1106.400 693.445, 1090.308 689.896, 1068.736 678.815 C 1030.863 659.361, 1005.207 623.464, 995.794 576.755 C 993.866 567.187, 993.526 562.353, 993.526 544.500 C 993.526 520.542, 995.247 509.104, 1001.594 490.869 C 1017.679 444.657, 1050.276 414.584, 1095 404.695 C 1107.476 401.936, 1138.153 401.768, 1153.457 404.374 C 1164.860 406.316, 1178.161 410.538, 1187.111 415.056 C 1193.070 418.064, 1193.334 418.107, 1194.994 416.334 C 1198.019 413.104, 1269 311.064, 1269 309.945 C 1269 309.353, 1262.588 305.787, 1254.750 302.019 C 1225.253 287.842, 1193.003 278.328, 1158 273.477 C 1147.118 271.969, 1103.152 270.651, 1095 271.588 M 387.250 274.689 L 272 275.008 272 546.504 L 272 818 345 818 L 418 818 418 612 L 418 406 447.750 406.004 C 480.888 406.007, 504.731 407.218, 519 409.620 C 573.811 418.848, 597.453 447.387, 602.983 511 C 603.593 518.010, 603.986 580.184, 603.991 670.250 L 604 818 676.500 818 L 749 818 749 656.645 C 749 555.343, 748.618 490.491, 747.974 482.395 C 738.508 363.481, 667.908 289.727, 551 276.621 C 532.076 274.500, 517.487 274.327, 387.250 274.689" stroke="none" fill="#1c2c5c" fill-rule="evenodd"/><path d="M 2201.583 274.483 C 2199.429 275.251, 2196.644 276.919, 2195.395 278.189 C 2191.271 282.383, 1836.681 789.423, 1835.370 793 C 1834.665 794.925, 1834.078 797.850, 1834.066 799.500 C 1834.019 805.946, 1840.087 814.583, 1846.315 816.936 C 1848.215 817.654, 1873.895 817.997, 1925.315 817.990 L 2001.500 817.980 2006.500 815.610 C 2009.250 814.306, 2013.119 811.498, 2015.098 809.370 C 2019.951 804.152, 2272.811 442.697, 2274.594 438.430 C 2275.367 436.579, 2276 432.180, 2276 428.656 C 2276 422.772, 2273.922 416.555, 2250.606 352.702 C 2236.639 314.453, 2224.377 282.003, 2223.356 280.591 C 2220.980 277.306, 2212.510 272.987, 2208.554 273.044 C 2206.874 273.068, 2203.737 273.716, 2201.583 274.483 M 2587.124 274.909 C 2583.610 276.131, 2580.283 278.288, 2577.517 281.139 C 2575.189 283.538, 2515.970 367.400, 2445.917 467.500 C 2351.075 603.024, 2318.070 650.905, 2316.671 655 C 2315.408 658.700, 2314.968 661.994, 2315.328 665.065 C 2315.749 668.665, 2359.585 791.438, 2365.649 806 C 2367.536 810.533, 2371.666 814.889, 2375.718 816.623 C 2382.456 819.506, 2392.631 817.479, 2397.131 812.356 C 2400.570 808.441, 2755.285 301.379, 2756.120 299.185 C 2759.134 291.259, 2755.446 280.306, 2748.259 275.837 L 2744.500 273.500 2668.500 273.270 C 2596.525 273.052, 2592.215 273.139, 2587.124 274.909" stroke="none" fill="#04a4e4" fill-rule="evenodd"/></svg>